<svg xmlns="http://www.w3.org/2000/svg" viewBox="0 0 200 200"><path d="M84.02 190.60 A92 92 0 1 1 123.81 11.13" fill="none" stroke="#00aeef" stroke-width="3.4" stroke-linecap="round"/><circle cx="146.00" cy="20.33" r="2.7" fill="#00aeef"/><circle cx="155.37" cy="26.53" r="2.7" fill="#00aeef"/><circle cx="163.91" cy="33.82" r="2.7" fill="#00aeef"/><circle cx="171.50" cy="42.10" r="2.7" fill="#00aeef"/><circle cx="178.02" cy="51.25" r="2.7" fill="#00aeef"/><circle cx="183.38" cy="61.12" r="2.7" fill="#00aeef"/><circle cx="187.50" cy="71.57" r="2.7" fill="#00aeef"/><circle cx="190.31" cy="82.45" r="2.7" fill="#00aeef"/><circle cx="191.78" cy="93.58" r="2.7" fill="#00aeef"/><circle cx="191.87" cy="104.81" r="2.7" fill="#00aeef"/><circle cx="190.60" cy="115.98" r="2.7" fill="#00aeef"/><circle cx="187.98" cy="126.90" r="2.7" fill="#00aeef"/><circle cx="184.05" cy="137.42" r="2.7" fill="#00aeef"/><circle cx="178.86" cy="147.38" r="2.7" fill="#00aeef"/><circle cx="172.50" cy="156.64" r="2.7" fill="#00aeef"/><circle cx="165.05" cy="165.05" r="2.7" fill="#00aeef"/><circle cx="156.64" cy="172.50" r="2.7" fill="#00aeef"/><circle cx="147.38" cy="178.86" r="2.7" fill="#00aeef"/><circle cx="137.42" cy="184.05" r="2.7" fill="#00aeef"/><circle cx="126.90" cy="187.98" r="2.7" fill="#00aeef"/><circle cx="115.98" cy="190.60" r="2.7" fill="#00aeef"/></svg>